<?xml version="1.0" standalone="no"?>
<!DOCTYPE svg PUBLIC "-//W3C//DTD SVG 20010904//EN"
 "http://www.w3.org/TR/2001/REC-SVG-20010904/DTD/svg10.dtd">
<svg version="1.0" xmlns="http://www.w3.org/2000/svg"
 width="547.000000pt" height="491.000000pt" viewBox="0 0 547.000000 491.000000"
 preserveAspectRatio="xMidYMid meet">
<metadata>
Created by potrace 1.16, written by Peter Selinger 2001-2019
</metadata>
<g transform="translate(0.000000,491.000000) scale(0.100000,-0.100000)"
fill="#000000" stroke="none">
<path d="M3325 4528 c-83 -29 -171 -122 -202 -214 -22 -65 -14 -175 17 -239
29 -60 93 -125 152 -157 36 -19 58 -22 138 -22 80 0 103 4 145 24 153 75 224
255 164 415 -30 79 -103 153 -182 183 -64 24 -178 29 -232 10z"/>
<path d="M3138 3806 c-42 -18 -80 -59 -206 -216 -64 -80 -170 -212 -236 -295
-590 -736 -596 -744 -596 -795 0 -21 4 -50 10 -64 8 -22 2 -35 -58 -114 -103
-136 -255 -332 -277 -359 l-20 -24 -90 71 c-256 204 -250 200 -307 200 -52 0
-61 -6 -131 -89 -23 -28 -30 -31 -42 -21 -21 17 -120 16 -141 -1 -16 -13 -102
-117 -149 -180 -35 -46 -100 -130 -225 -289 -222 -282 -240 -308 -240 -349 0
-25 9 -52 26 -76 25 -37 25 -40 10 -72 -21 -44 -20 -81 3 -119 27 -44 313
-262 319 -243 10 30 88 97 127 108 79 22 134 10 198 -43 24 -20 46 -36 49 -36
3 0 68 80 144 178 76 97 233 299 350 447 116 149 216 280 222 292 18 33 14 81
-10 124 l-21 38 44 57 c24 31 105 136 180 233 135 175 136 176 181 183 25 3
57 14 71 23 22 14 364 440 546 679 57 76 71 88 71 60 0 -10 -74 -315 -164
-678 -91 -364 -175 -701 -187 -751 -20 -84 -36 -114 -236 -448 -118 -196 -221
-373 -229 -392 -18 -45 -18 -116 2 -163 65 -156 281 -180 380 -41 39 54 469
778 496 834 10 22 43 154 73 294 30 139 57 256 60 259 6 6 26 -14 137 -137 48
-55 201 -222 285 -312 34 -37 65 -78 68 -91 3 -13 37 -192 75 -398 39 -206 78
-392 87 -413 18 -41 80 -102 119 -117 38 -15 127 -12 167 5 57 24 104 78 122
139 17 58 17 63 -24 276 -106 556 -131 681 -143 703 -7 14 -79 103 -159 199
-160 189 -162 191 -327 382 -90 105 -112 136 -109 156 8 51 129 596 138 618 5
13 13 20 19 17 5 -3 33 -54 61 -113 29 -59 60 -119 71 -134 16 -23 482 -354
545 -387 12 -6 35 -11 52 -11 16 0 34 -6 38 -14 14 -22 50 -36 97 -36 l46 0 0
-41 c0 -31 6 -47 29 -70 l29 -29 152 0 152 0 29 29 29 29 0 245 0 244 -210 2
-210 2 0 -35 0 -34 -57 -5 c-58 -4 -58 -4 -168 69 -147 98 -255 173 -293 204
-21 18 -79 122 -199 359 -182 361 -214 408 -305 449 -87 38 -281 54 -340 28z
m1540 -1088 c19 -19 17 -402 -3 -418 -31 -25 -35 0 -35 209 0 223 4 243 38
209z m-90 -210 c-3 -182 -5 -213 -18 -213 -13 0 -15 31 -18 213 -2 208 -2 212
18 212 20 0 20 -4 18 -212z m190 3 c2 -208 -2 -237 -33 -211 -12 10 -15 43
-15 200 0 104 3 196 6 205 4 9 14 15 23 13 14 -3 16 -28 19 -207z m90 -3 c-3
-182 -5 -213 -18 -213 -13 0 -15 31 -18 213 -2 208 -2 212 18 212 20 0 20 -4
18 -212z"/>
<path d="M4618 2980 c-16 -16 -40 -30 -52 -30 -28 0 -56 -29 -56 -57 0 -11 -7
-26 -16 -33 -8 -8 -14 -25 -12 -39 l3 -26 222 -3 c216 -2 222 -2 233 18 9 17
8 27 -5 46 -8 13 -22 24 -30 24 -9 0 -15 9 -15 23 0 13 -8 31 -18 40 -20 19
-67 23 -77 7 -10 -16 -21 -12 -34 14 -29 52 -98 60 -143 16z"/>
<path d="M953 819 c-80 -16 -117 -65 -111 -146 4 -49 10 -60 41 -90 32 -29 43
-33 92 -33 46 0 59 4 88 30 45 39 58 90 41 151 -20 69 -79 103 -151 88z"/>
</g>
</svg>
