<?xml version="1.0" standalone="no"?>
<!DOCTYPE svg PUBLIC "-//W3C//DTD SVG 20010904//EN"
 "http://www.w3.org/TR/2001/REC-SVG-20010904/DTD/svg10.dtd">
<svg version="1.0" xmlns="http://www.w3.org/2000/svg"
 width="551.000000pt" height="496.000000pt" viewBox="0 0 551.000000 496.000000"
 preserveAspectRatio="xMidYMid meet">
<metadata>
Created by potrace 1.16, written by Peter Selinger 2001-2019
</metadata>
<g transform="translate(0.000000,496.000000) scale(0.100000,-0.100000)"
fill="#000000" stroke="none">
<path d="M3372 4487 c-101 -53 -178 -162 -176 -252 1 -123 143 -265 265 -265
121 0 269 147 271 268 1 84 -78 193 -174 241 -74 37 -126 39 -186 8z"/>
<path d="M3195 3771 c-41 -26 -94 -83 -217 -236 -57 -71 -169 -211 -249 -310
-166 -206 -301 -375 -447 -558 -101 -128 -102 -129 -102 -183 0 -54 0 -54 31
-54 77 0 91 16 597 661 l94 119 55 0 54 0 -3 -87 c-3 -72 -24 -169 -116 -528
-63 -242 -147 -572 -188 -734 l-75 -294 -131 -216 c-72 -119 -169 -278 -215
-353 -110 -181 -115 -193 -97 -238 19 -45 59 -87 107 -112 32 -16 44 -17 70
-9 70 25 93 56 342 471 136 226 254 429 264 453 10 23 43 153 72 290 l54 247
60 0 61 0 154 -172 c85 -95 191 -212 234 -261 l80 -89 72 -391 c41 -216 81
-411 89 -434 18 -47 90 -117 131 -127 36 -9 120 39 153 88 32 49 33 85 3 236
-12 63 -45 239 -73 390 -27 151 -54 287 -60 301 -6 15 -143 184 -305 375
l-294 349 4 85 c2 57 23 169 64 345 33 143 63 277 66 298 l7 37 62 0 63 0 54
-112 c69 -143 81 -161 133 -196 23 -15 139 -96 258 -179 119 -83 222 -152 230
-155 16 -5 76 47 84 73 4 10 -1 29 -9 41 -9 12 -16 30 -16 40 0 12 -8 18 -23
18 -22 0 -100 50 -342 219 l-107 75 -170 340 c-182 365 -208 405 -299 451 -45
24 -143 45 -204 45 -16 0 -43 -9 -60 -19z"/>
<path d="M4676 2935 c-11 -17 -26 -25 -44 -25 -30 0 -52 -16 -52 -37 0 -10 32
-13 140 -13 78 0 140 4 140 9 0 32 -14 41 -65 41 -45 0 -55 4 -69 25 -9 14
-20 25 -25 25 -5 0 -16 -11 -25 -25z"/>
<path d="M1355 2172 c-11 -10 -34 -34 -50 -56 l-29 -38 -85 3 -86 4 -120 -151
c-66 -83 -174 -219 -240 -303 -66 -84 -144 -183 -173 -219 -74 -93 -75 -95
-52 -125 22 -28 28 -123 10 -156 -14 -26 5 -47 129 -145 l109 -86 52 35 c52
35 53 35 164 35 88 0 119 -4 147 -18 l36 -18 201 255 c110 141 258 328 327
416 150 190 154 195 131 229 -9 14 -16 41 -16 61 l0 35 -50 0 c-55 0 -57 2
-287 188 -88 71 -94 73 -118 54z"/>
<path d="M958 784 c-55 -29 -61 -69 -17 -113 38 -38 49 -39 88 -2 40 38 40 71
0 105 -35 30 -35 30 -71 10z"/>
</g>
</svg>
